<mxfile host="app.diagrams.net" modified="2024-03-20T15:02:00.393Z" agent="Mozilla/5.0 (X11; Ubuntu; Linux x86_64; rv:123.0) Gecko/20100101 Firefox/123.0" etag="yxOqXj21ermmXT_Zo28M" version="24.0.7" type="github">
  <diagram id="6a731a19-8d31-9384-78a2-239565b7b9f0" name="Page-1">
    <mxGraphModel dx="4014" dy="1600" grid="1" gridSize="10" guides="1" tooltips="1" connect="1" arrows="1" fold="1" page="1" pageScale="1" pageWidth="827" pageHeight="1169" background="none" math="0" shadow="0">
      <root>
        <mxCell id="0" />
        <mxCell id="1" parent="0" />
        <mxCell id="d1s5xP5k-tzUOM_EIyrr-2261" value="TERRAFORM" style="rounded=1;whiteSpace=wrap;html=1;labelBackgroundColor=none;" vertex="1" parent="1">
          <mxGeometry x="339" y="20" width="150" height="50" as="geometry" />
        </mxCell>
        <mxCell id="d1s5xP5k-tzUOM_EIyrr-2262" value="" style="endArrow=classic;html=1;rounded=0;exitX=0.5;exitY=1;exitDx=0;exitDy=0;labelBackgroundColor=none;fontColor=default;" edge="1" parent="1" source="d1s5xP5k-tzUOM_EIyrr-2261">
          <mxGeometry width="50" height="50" relative="1" as="geometry">
            <mxPoint x="680" y="450" as="sourcePoint" />
            <mxPoint x="414" y="120" as="targetPoint" />
            <Array as="points" />
          </mxGeometry>
        </mxCell>
        <mxCell id="d1s5xP5k-tzUOM_EIyrr-2263" value="--- Provider ---dmacvicar/libvirt" style="rounded=1;whiteSpace=wrap;html=1;labelBackgroundColor=none;" vertex="1" parent="1">
          <mxGeometry x="354" y="120" width="120" height="40" as="geometry" />
        </mxCell>
        <mxCell id="d1s5xP5k-tzUOM_EIyrr-2264" value="" style="endArrow=classic;html=1;rounded=0;exitX=0.5;exitY=1;exitDx=0;exitDy=0;labelBackgroundColor=none;fontColor=default;" edge="1" parent="1" source="d1s5xP5k-tzUOM_EIyrr-2263" target="d1s5xP5k-tzUOM_EIyrr-2265">
          <mxGeometry width="50" height="50" relative="1" as="geometry">
            <mxPoint x="480" y="150" as="sourcePoint" />
            <mxPoint x="414" y="200" as="targetPoint" />
          </mxGeometry>
        </mxCell>
        <mxCell id="d1s5xP5k-tzUOM_EIyrr-2265" value="KVM" style="rounded=1;whiteSpace=wrap;html=1;labelBackgroundColor=none;" vertex="1" parent="1">
          <mxGeometry x="371" y="200" width="84" height="30" as="geometry" />
        </mxCell>
        <mxCell id="d1s5xP5k-tzUOM_EIyrr-2266" value="" style="endArrow=classic;html=1;rounded=0;exitX=0;exitY=1;exitDx=0;exitDy=0;entryX=0.5;entryY=0;entryDx=0;entryDy=0;labelBackgroundColor=none;fontColor=default;" edge="1" parent="1" source="d1s5xP5k-tzUOM_EIyrr-2265" target="d1s5xP5k-tzUOM_EIyrr-2272">
          <mxGeometry width="50" height="50" relative="1" as="geometry">
            <mxPoint x="480" y="230" as="sourcePoint" />
            <mxPoint x="160" y="320" as="targetPoint" />
          </mxGeometry>
        </mxCell>
        <mxCell id="d1s5xP5k-tzUOM_EIyrr-2267" value="" style="endArrow=classic;html=1;rounded=0;exitX=1;exitY=1;exitDx=0;exitDy=0;entryX=0.5;entryY=0;entryDx=0;entryDy=0;labelBackgroundColor=none;fontColor=default;" edge="1" parent="1" source="d1s5xP5k-tzUOM_EIyrr-2265" target="d1s5xP5k-tzUOM_EIyrr-2273">
          <mxGeometry width="50" height="50" relative="1" as="geometry">
            <mxPoint x="440" y="220" as="sourcePoint" />
            <mxPoint x="680" y="320" as="targetPoint" />
          </mxGeometry>
        </mxCell>
        <mxCell id="d1s5xP5k-tzUOM_EIyrr-2268" value="" style="endArrow=classic;html=1;rounded=0;exitX=0.5;exitY=1;exitDx=0;exitDy=0;labelBackgroundColor=none;fontColor=default;" edge="1" parent="1" source="d1s5xP5k-tzUOM_EIyrr-2265">
          <mxGeometry width="50" height="50" relative="1" as="geometry">
            <mxPoint x="440" y="280" as="sourcePoint" />
            <mxPoint x="413" y="320" as="targetPoint" />
          </mxGeometry>
        </mxCell>
        <mxCell id="d1s5xP5k-tzUOM_EIyrr-2275" value="Create VM 1 " style="text;html=1;align=center;verticalAlign=middle;resizable=0;points=[];autosize=1;strokeColor=none;fillColor=none;rotation=-10;labelBackgroundColor=none;" vertex="1" parent="1">
          <mxGeometry x="130" y="240" width="90" height="30" as="geometry" />
        </mxCell>
        <mxCell id="d1s5xP5k-tzUOM_EIyrr-2277" value="Create VM 2" style="text;html=1;align=center;verticalAlign=middle;resizable=0;points=[];autosize=1;strokeColor=none;fillColor=none;rotation=0;labelBackgroundColor=none;" vertex="1" parent="1">
          <mxGeometry x="323" y="260" width="90" height="30" as="geometry" />
        </mxCell>
        <mxCell id="d1s5xP5k-tzUOM_EIyrr-2278" value="Create VM 3" style="text;html=1;align=center;verticalAlign=middle;resizable=0;points=[];autosize=1;strokeColor=none;fillColor=none;rotation=15;labelBackgroundColor=none;" vertex="1" parent="1">
          <mxGeometry x="630" y="240" width="90" height="30" as="geometry" />
        </mxCell>
        <mxCell id="d1s5xP5k-tzUOM_EIyrr-2289" style="edgeStyle=orthogonalEdgeStyle;rounded=0;orthogonalLoop=1;jettySize=auto;html=1;exitX=0;exitY=0;exitDx=0;exitDy=0;labelBackgroundColor=none;fontColor=default;" edge="1" parent="1" source="d1s5xP5k-tzUOM_EIyrr-2297" target="d1s5xP5k-tzUOM_EIyrr-2283">
          <mxGeometry relative="1" as="geometry" />
        </mxCell>
        <mxCell id="d1s5xP5k-tzUOM_EIyrr-2290" style="edgeStyle=orthogonalEdgeStyle;rounded=0;orthogonalLoop=1;jettySize=auto;html=1;exitX=0.5;exitY=0;exitDx=0;exitDy=0;entryX=0.5;entryY=1;entryDx=0;entryDy=0;labelBackgroundColor=none;fontColor=default;" edge="1" parent="1" source="d1s5xP5k-tzUOM_EIyrr-2300" target="d1s5xP5k-tzUOM_EIyrr-2286">
          <mxGeometry relative="1" as="geometry" />
        </mxCell>
        <mxCell id="d1s5xP5k-tzUOM_EIyrr-2291" style="edgeStyle=orthogonalEdgeStyle;rounded=0;orthogonalLoop=1;jettySize=auto;html=1;exitX=1;exitY=0;exitDx=0;exitDy=0;entryX=0.5;entryY=1;entryDx=0;entryDy=0;labelBackgroundColor=none;fontColor=default;" edge="1" parent="1" source="d1s5xP5k-tzUOM_EIyrr-2301" target="d1s5xP5k-tzUOM_EIyrr-2285">
          <mxGeometry relative="1" as="geometry" />
        </mxCell>
        <mxCell id="d1s5xP5k-tzUOM_EIyrr-2287" value="Ansible" style="html=1;whiteSpace=wrap;container=1;recursiveResize=0;collapsible=0;labelBackgroundColor=none;" vertex="1" parent="1">
          <mxGeometry x="333" y="780" width="160" height="70" as="geometry" />
        </mxCell>
        <mxCell id="d1s5xP5k-tzUOM_EIyrr-2288" value="" style="triangle;html=1;whiteSpace=wrap;labelBackgroundColor=none;" vertex="1" parent="d1s5xP5k-tzUOM_EIyrr-2287">
          <mxGeometry x="20" y="20" width="20" height="30" as="geometry" />
        </mxCell>
        <mxCell id="d1s5xP5k-tzUOM_EIyrr-2302" value="" style="edgeStyle=orthogonalEdgeStyle;rounded=0;orthogonalLoop=1;jettySize=auto;html=1;exitX=1;exitY=0;exitDx=0;exitDy=0;entryX=0.5;entryY=1;entryDx=0;entryDy=0;labelBackgroundColor=none;fontColor=default;" edge="1" parent="1" source="d1s5xP5k-tzUOM_EIyrr-2287" target="d1s5xP5k-tzUOM_EIyrr-2301">
          <mxGeometry relative="1" as="geometry">
            <mxPoint x="493" y="780" as="sourcePoint" />
            <mxPoint x="900" y="650" as="targetPoint" />
          </mxGeometry>
        </mxCell>
        <mxCell id="d1s5xP5k-tzUOM_EIyrr-2312" style="edgeStyle=orthogonalEdgeStyle;rounded=0;orthogonalLoop=1;jettySize=auto;html=1;" edge="1" parent="1" source="d1s5xP5k-tzUOM_EIyrr-2301">
          <mxGeometry relative="1" as="geometry">
            <mxPoint x="880" y="1280" as="targetPoint" />
          </mxGeometry>
        </mxCell>
        <mxCell id="d1s5xP5k-tzUOM_EIyrr-2301" value="" style="shape=image;html=1;verticalLabelPosition=bottom;verticalAlign=top;imageAspect=0;image=img/clipart/Gear_128x128.png;labelBackgroundColor=none;" vertex="1" parent="1">
          <mxGeometry x="660" y="700" width="30" height="30" as="geometry" />
        </mxCell>
        <mxCell id="d1s5xP5k-tzUOM_EIyrr-2303" value="" style="edgeStyle=orthogonalEdgeStyle;rounded=0;orthogonalLoop=1;jettySize=auto;html=1;exitX=0.5;exitY=0;exitDx=0;exitDy=0;entryX=0.5;entryY=1;entryDx=0;entryDy=0;labelBackgroundColor=none;fontColor=default;" edge="1" parent="1" source="d1s5xP5k-tzUOM_EIyrr-2287" target="d1s5xP5k-tzUOM_EIyrr-2300">
          <mxGeometry relative="1" as="geometry">
            <mxPoint x="413" y="780" as="sourcePoint" />
            <mxPoint x="413" y="650" as="targetPoint" />
          </mxGeometry>
        </mxCell>
        <mxCell id="d1s5xP5k-tzUOM_EIyrr-2307" style="edgeStyle=orthogonalEdgeStyle;rounded=0;orthogonalLoop=1;jettySize=auto;html=1;labelBackgroundColor=none;fontColor=default;entryX=0.5;entryY=0;entryDx=0;entryDy=0;" edge="1" parent="1" source="d1s5xP5k-tzUOM_EIyrr-2300" target="d1s5xP5k-tzUOM_EIyrr-2309">
          <mxGeometry relative="1" as="geometry">
            <mxPoint x="420" y="920" as="targetPoint" />
            <Array as="points">
              <mxPoint x="510" y="705" />
              <mxPoint x="510" y="880" />
              <mxPoint x="413" y="880" />
            </Array>
          </mxGeometry>
        </mxCell>
        <mxCell id="d1s5xP5k-tzUOM_EIyrr-2300" value="" style="shape=image;html=1;verticalLabelPosition=bottom;verticalAlign=top;imageAspect=0;image=img/clipart/Gear_128x128.png;labelBackgroundColor=none;" vertex="1" parent="1">
          <mxGeometry x="399" y="690" width="30" height="30" as="geometry" />
        </mxCell>
        <mxCell id="d1s5xP5k-tzUOM_EIyrr-2306" value="" style="edgeStyle=orthogonalEdgeStyle;rounded=0;orthogonalLoop=1;jettySize=auto;html=1;exitX=0;exitY=0;exitDx=0;exitDy=0;labelBackgroundColor=none;fontColor=default;" edge="1" parent="1" source="d1s5xP5k-tzUOM_EIyrr-2287" target="d1s5xP5k-tzUOM_EIyrr-2297">
          <mxGeometry relative="1" as="geometry">
            <mxPoint x="333" y="780" as="sourcePoint" />
            <mxPoint x="-80" y="650" as="targetPoint" />
          </mxGeometry>
        </mxCell>
        <mxCell id="d1s5xP5k-tzUOM_EIyrr-2311" style="edgeStyle=orthogonalEdgeStyle;rounded=0;orthogonalLoop=1;jettySize=auto;html=1;" edge="1" parent="1" source="d1s5xP5k-tzUOM_EIyrr-2297">
          <mxGeometry relative="1" as="geometry">
            <mxPoint x="-40" y="1281.6666666666667" as="targetPoint" />
            <Array as="points">
              <mxPoint x="-40" y="715" />
            </Array>
          </mxGeometry>
        </mxCell>
        <mxCell id="d1s5xP5k-tzUOM_EIyrr-2297" value="" style="shape=image;html=1;verticalLabelPosition=bottom;verticalAlign=top;imageAspect=0;image=img/clipart/Gear_128x128.png;labelBackgroundColor=none;" vertex="1" parent="1">
          <mxGeometry x="140" y="700" width="30" height="30" as="geometry" />
        </mxCell>
        <mxCell id="d1s5xP5k-tzUOM_EIyrr-2373" value="192.168.1.30" style="group" vertex="1" connectable="0" parent="1">
          <mxGeometry x="-310" y="1280" width="565" height="510" as="geometry" />
        </mxCell>
        <mxCell id="d1s5xP5k-tzUOM_EIyrr-2313" value="" style="rounded=1;whiteSpace=wrap;html=1;labelBackgroundColor=none;" vertex="1" parent="d1s5xP5k-tzUOM_EIyrr-2373">
          <mxGeometry width="540" height="413.3333333333333" as="geometry" />
        </mxCell>
        <mxCell id="d1s5xP5k-tzUOM_EIyrr-2316" value="eth0: 10.10.10.30" style="rounded=0;whiteSpace=wrap;html=1;labelBackgroundColor=none;" vertex="1" parent="d1s5xP5k-tzUOM_EIyrr-2373">
          <mxGeometry x="180" y="400" width="180" height="40" as="geometry" />
        </mxCell>
        <mxCell id="d1s5xP5k-tzUOM_EIyrr-2322" value="K8s Workcer Node 1" style="text;html=1;align=center;verticalAlign=middle;resizable=0;points=[];autosize=1;strokeColor=none;fillColor=none;" vertex="1" parent="d1s5xP5k-tzUOM_EIyrr-2373">
          <mxGeometry x="172.5" width="130" height="30" as="geometry" />
        </mxCell>
        <mxCell id="d1s5xP5k-tzUOM_EIyrr-2345" value="Kubelet" style="rounded=0;whiteSpace=wrap;html=1;" vertex="1" parent="d1s5xP5k-tzUOM_EIyrr-2373">
          <mxGeometry x="30.000000000000004" y="40" width="120.00000000000001" height="26.666666666666668" as="geometry" />
        </mxCell>
        <mxCell id="d1s5xP5k-tzUOM_EIyrr-2352" value="Calico" style="rounded=0;whiteSpace=wrap;html=1;" vertex="1" parent="d1s5xP5k-tzUOM_EIyrr-2373">
          <mxGeometry x="30.000000000000004" y="120.00000000000001" width="120.00000000000001" height="26.666666666666668" as="geometry" />
        </mxCell>
        <mxCell id="d1s5xP5k-tzUOM_EIyrr-2353" value="CRI" style="rounded=0;whiteSpace=wrap;html=1;" vertex="1" parent="d1s5xP5k-tzUOM_EIyrr-2373">
          <mxGeometry x="165.00000000000003" y="80" width="120.00000000000001" height="26.666666666666668" as="geometry" />
        </mxCell>
        <mxCell id="d1s5xP5k-tzUOM_EIyrr-2354" value="Kube-Proxy" style="rounded=0;whiteSpace=wrap;html=1;" vertex="1" parent="d1s5xP5k-tzUOM_EIyrr-2373">
          <mxGeometry x="165.00000000000003" y="40" width="120.00000000000001" height="26.666666666666668" as="geometry" />
        </mxCell>
        <mxCell id="d1s5xP5k-tzUOM_EIyrr-2402" value="" style="rounded=1;whiteSpace=wrap;html=1;" vertex="1" parent="d1s5xP5k-tzUOM_EIyrr-2373">
          <mxGeometry x="20" y="290" width="500" height="110" as="geometry" />
        </mxCell>
        <mxCell id="d1s5xP5k-tzUOM_EIyrr-2355" value="Containerd" style="rounded=0;whiteSpace=wrap;html=1;" vertex="1" parent="d1s5xP5k-tzUOM_EIyrr-2373">
          <mxGeometry x="30.000000000000004" y="80" width="120.00000000000001" height="26.666666666666668" as="geometry" />
        </mxCell>
        <mxCell id="d1s5xP5k-tzUOM_EIyrr-2365" value="&lt;div&gt;TunnelIO&lt;/div&gt;&lt;div&gt;192.168.1.30&lt;br&gt;&lt;/div&gt;" style="rounded=1;whiteSpace=wrap;html=1;" vertex="1" parent="d1s5xP5k-tzUOM_EIyrr-2373">
          <mxGeometry x="217.50000000000003" y="346.6666666666667" width="105" height="40" as="geometry" />
        </mxCell>
        <mxCell id="d1s5xP5k-tzUOM_EIyrr-2391" value="POD2" style="swimlane;startSize=20;horizontal=1;containerType=tree;" vertex="1" parent="d1s5xP5k-tzUOM_EIyrr-2373">
          <mxGeometry x="285" y="159.17000000000002" width="203" height="95" as="geometry" />
        </mxCell>
        <mxCell id="d1s5xP5k-tzUOM_EIyrr-2393" value="eth0:192.168.1.33" style="whiteSpace=wrap;html=1;treeFolding=1;treeMoving=1;newEdgeStyle={&quot;edgeStyle&quot;:&quot;elbowEdgeStyle&quot;,&quot;startArrow&quot;:&quot;none&quot;,&quot;endArrow&quot;:&quot;none&quot;};" vertex="1" parent="d1s5xP5k-tzUOM_EIyrr-2391">
          <mxGeometry x="80" y="50" width="120" height="40" as="geometry" />
        </mxCell>
        <mxCell id="d1s5xP5k-tzUOM_EIyrr-2400" value="POD1" style="swimlane;startSize=20;horizontal=1;containerType=tree;" vertex="1" parent="d1s5xP5k-tzUOM_EIyrr-2373">
          <mxGeometry x="30" y="159.17000000000007" width="203" height="95" as="geometry" />
        </mxCell>
        <mxCell id="d1s5xP5k-tzUOM_EIyrr-2401" value="eth0:192.168.1.42" style="whiteSpace=wrap;html=1;treeFolding=1;treeMoving=1;newEdgeStyle={&quot;edgeStyle&quot;:&quot;elbowEdgeStyle&quot;,&quot;startArrow&quot;:&quot;none&quot;,&quot;endArrow&quot;:&quot;none&quot;};" vertex="1" parent="d1s5xP5k-tzUOM_EIyrr-2400">
          <mxGeometry x="80" y="50" width="120" height="40" as="geometry" />
        </mxCell>
        <mxCell id="d1s5xP5k-tzUOM_EIyrr-2403" value="Host Network Namespace" style="text;html=1;align=center;verticalAlign=middle;resizable=0;points=[];autosize=1;strokeColor=none;fillColor=none;" vertex="1" parent="d1s5xP5k-tzUOM_EIyrr-2373">
          <mxGeometry x="20" y="346.67" width="160" height="30" as="geometry" />
        </mxCell>
        <mxCell id="d1s5xP5k-tzUOM_EIyrr-2408" value="" style="endArrow=classic;startArrow=classic;html=1;rounded=0;exitX=0.75;exitY=0;exitDx=0;exitDy=0;entryX=0.25;entryY=1;entryDx=0;entryDy=0;" edge="1" parent="d1s5xP5k-tzUOM_EIyrr-2373">
          <mxGeometry width="50" height="50" relative="1" as="geometry">
            <mxPoint x="430" y="290" as="sourcePoint" />
            <mxPoint x="430" y="249.17000000000007" as="targetPoint" />
          </mxGeometry>
        </mxCell>
        <mxCell id="d1s5xP5k-tzUOM_EIyrr-2409" value="" style="endArrow=classic;startArrow=classic;html=1;rounded=0;exitX=0.75;exitY=0;exitDx=0;exitDy=0;entryX=0.25;entryY=1;entryDx=0;entryDy=0;" edge="1" parent="d1s5xP5k-tzUOM_EIyrr-2373">
          <mxGeometry width="50" height="50" relative="1" as="geometry">
            <mxPoint x="163.75" y="290" as="sourcePoint" />
            <mxPoint x="163.75" y="249" as="targetPoint" />
          </mxGeometry>
        </mxCell>
        <mxCell id="d1s5xP5k-tzUOM_EIyrr-2456" value="" style="verticalLabelPosition=bottom;verticalAlign=top;html=1;shape=mxgraph.basic.patternFillRect;fillStyle=diagGrid;step=5;fillStrokeWidth=0.2;fillStrokeColor=#dddddd;" vertex="1" parent="d1s5xP5k-tzUOM_EIyrr-2373">
          <mxGeometry x="380" y="290" width="100" height="30" as="geometry" />
        </mxCell>
        <mxCell id="d1s5xP5k-tzUOM_EIyrr-2417" value="" style="verticalLabelPosition=bottom;verticalAlign=top;html=1;shape=mxgraph.basic.patternFillRect;fillStyle=diagGrid;step=5;fillStrokeWidth=0.2;fillStrokeColor=#dddddd;" vertex="1" parent="d1s5xP5k-tzUOM_EIyrr-2373">
          <mxGeometry x="110" y="290" width="100" height="30" as="geometry" />
        </mxCell>
        <mxCell id="d1s5xP5k-tzUOM_EIyrr-2376" value="" style="group" vertex="1" connectable="0" parent="1">
          <mxGeometry x="234" y="320" width="360" height="330" as="geometry" />
        </mxCell>
        <mxCell id="d1s5xP5k-tzUOM_EIyrr-2269" value="" style="rounded=1;whiteSpace=wrap;html=1;labelBackgroundColor=none;" vertex="1" parent="d1s5xP5k-tzUOM_EIyrr-2376">
          <mxGeometry width="360" height="310" as="geometry" />
        </mxCell>
        <mxCell id="d1s5xP5k-tzUOM_EIyrr-2286" value="eth0: 10.10.10.20" style="rounded=0;whiteSpace=wrap;html=1;labelBackgroundColor=none;" vertex="1" parent="d1s5xP5k-tzUOM_EIyrr-2376">
          <mxGeometry x="119" y="300" width="120" height="30" as="geometry" />
        </mxCell>
        <mxCell id="d1s5xP5k-tzUOM_EIyrr-2377" value="" style="group" vertex="1" connectable="0" parent="1">
          <mxGeometry x="-240" y="320" width="360" height="330" as="geometry" />
        </mxCell>
        <mxCell id="d1s5xP5k-tzUOM_EIyrr-2272" value="" style="rounded=1;whiteSpace=wrap;html=1;labelBackgroundColor=none;" vertex="1" parent="d1s5xP5k-tzUOM_EIyrr-2377">
          <mxGeometry width="360" height="310" as="geometry" />
        </mxCell>
        <mxCell id="d1s5xP5k-tzUOM_EIyrr-2283" value="eth0: 10.10.10.30" style="rounded=0;whiteSpace=wrap;html=1;labelBackgroundColor=none;" vertex="1" parent="d1s5xP5k-tzUOM_EIyrr-2377">
          <mxGeometry x="100" y="300" width="120" height="30" as="geometry" />
        </mxCell>
        <mxCell id="d1s5xP5k-tzUOM_EIyrr-2378" value="" style="group" vertex="1" connectable="0" parent="1">
          <mxGeometry x="720" y="320" width="360" height="330" as="geometry" />
        </mxCell>
        <mxCell id="2257" style="edgeStyle=orthogonalEdgeStyle;curved=1;rounded=0;jumpStyle=none;html=1;exitX=0.75;exitY=0;entryX=0.75;entryY=0;shadow=0;labelBackgroundColor=none;startArrow=none;startFill=0;endArrow=none;endFill=0;endSize=10;jettySize=auto;orthogonalLoop=1;strokeWidth=2;fontFamily=Helvetica;fontSize=25;fontColor=default;align=left;" parent="d1s5xP5k-tzUOM_EIyrr-2378" edge="1">
          <mxGeometry relative="1" as="geometry">
            <mxPoint x="93.74999999999955" y="114" as="sourcePoint" />
            <mxPoint x="93.74999999999955" y="114" as="targetPoint" />
          </mxGeometry>
        </mxCell>
        <mxCell id="d1s5xP5k-tzUOM_EIyrr-2273" value="" style="rounded=1;whiteSpace=wrap;html=1;labelBackgroundColor=none;" vertex="1" parent="d1s5xP5k-tzUOM_EIyrr-2378">
          <mxGeometry width="360" height="310" as="geometry" />
        </mxCell>
        <mxCell id="d1s5xP5k-tzUOM_EIyrr-2285" value="eth0: 10.10.10.40" style="rounded=0;whiteSpace=wrap;html=1;labelBackgroundColor=none;" vertex="1" parent="d1s5xP5k-tzUOM_EIyrr-2378">
          <mxGeometry x="120" y="300" width="120" height="30" as="geometry" />
        </mxCell>
        <mxCell id="d1s5xP5k-tzUOM_EIyrr-2379" value="" style="group" vertex="1" connectable="0" parent="1">
          <mxGeometry x="241" y="960" width="360" height="330" as="geometry" />
        </mxCell>
        <mxCell id="d1s5xP5k-tzUOM_EIyrr-2309" value="" style="rounded=1;whiteSpace=wrap;html=1;labelBackgroundColor=none;verticalAlign=bottom;" vertex="1" parent="d1s5xP5k-tzUOM_EIyrr-2379">
          <mxGeometry width="360" height="310" as="geometry" />
        </mxCell>
        <mxCell id="d1s5xP5k-tzUOM_EIyrr-2321" value="K8s Master Node" style="text;html=1;align=center;verticalAlign=middle;resizable=0;points=[];autosize=1;strokeColor=none;fillColor=none;" vertex="1" parent="d1s5xP5k-tzUOM_EIyrr-2379">
          <mxGeometry x="113" width="120" height="30" as="geometry" />
        </mxCell>
        <mxCell id="d1s5xP5k-tzUOM_EIyrr-2325" value="" style="ellipse;shape=doubleEllipse;whiteSpace=wrap;html=1;" vertex="1" parent="d1s5xP5k-tzUOM_EIyrr-2379">
          <mxGeometry y="17.5" width="356" height="260" as="geometry" />
        </mxCell>
        <mxCell id="d1s5xP5k-tzUOM_EIyrr-2329" value="etcd" style="shape=cylinder3;whiteSpace=wrap;html=1;boundedLbl=1;backgroundOutline=1;size=15;" vertex="1" parent="d1s5xP5k-tzUOM_EIyrr-2379">
          <mxGeometry x="22" y="107.5" width="60" height="80" as="geometry" />
        </mxCell>
        <mxCell id="d1s5xP5k-tzUOM_EIyrr-2334" style="edgeStyle=orthogonalEdgeStyle;rounded=0;orthogonalLoop=1;jettySize=auto;html=1;exitX=1;exitY=0.5;exitDx=0;exitDy=0;" edge="1" parent="d1s5xP5k-tzUOM_EIyrr-2379" source="d1s5xP5k-tzUOM_EIyrr-2330" target="d1s5xP5k-tzUOM_EIyrr-2332">
          <mxGeometry relative="1" as="geometry">
            <Array as="points">
              <mxPoint x="276" y="147" />
            </Array>
          </mxGeometry>
        </mxCell>
        <mxCell id="d1s5xP5k-tzUOM_EIyrr-2336" style="edgeStyle=orthogonalEdgeStyle;rounded=0;orthogonalLoop=1;jettySize=auto;html=1;exitX=1;exitY=0.5;exitDx=0;exitDy=0;entryX=0;entryY=0.5;entryDx=0;entryDy=0;" edge="1" parent="d1s5xP5k-tzUOM_EIyrr-2379" source="d1s5xP5k-tzUOM_EIyrr-2330" target="d1s5xP5k-tzUOM_EIyrr-2331">
          <mxGeometry relative="1" as="geometry" />
        </mxCell>
        <mxCell id="d1s5xP5k-tzUOM_EIyrr-2330" value="API Server" style="rounded=1;whiteSpace=wrap;html=1;" vertex="1" parent="d1s5xP5k-tzUOM_EIyrr-2379">
          <mxGeometry x="151.5" y="130" width="57" height="35" as="geometry" />
        </mxCell>
        <mxCell id="d1s5xP5k-tzUOM_EIyrr-2331" value="Scheduler" style="rounded=1;whiteSpace=wrap;html=1;" vertex="1" parent="d1s5xP5k-tzUOM_EIyrr-2379">
          <mxGeometry x="248" y="174" width="57" height="35" as="geometry" />
        </mxCell>
        <mxCell id="d1s5xP5k-tzUOM_EIyrr-2332" value="&lt;div&gt;Controller&lt;/div&gt;&lt;div&gt;Manager&lt;br&gt;&lt;/div&gt;" style="rounded=1;whiteSpace=wrap;html=1;" vertex="1" parent="d1s5xP5k-tzUOM_EIyrr-2379">
          <mxGeometry x="248" y="90" width="57" height="35" as="geometry" />
        </mxCell>
        <mxCell id="d1s5xP5k-tzUOM_EIyrr-2339" style="edgeStyle=orthogonalEdgeStyle;rounded=0;orthogonalLoop=1;jettySize=auto;html=1;exitX=0;exitY=0.5;exitDx=0;exitDy=0;entryX=1;entryY=0.5;entryDx=0;entryDy=0;entryPerimeter=0;" edge="1" parent="d1s5xP5k-tzUOM_EIyrr-2379" source="d1s5xP5k-tzUOM_EIyrr-2330" target="d1s5xP5k-tzUOM_EIyrr-2329">
          <mxGeometry relative="1" as="geometry" />
        </mxCell>
        <mxCell id="d1s5xP5k-tzUOM_EIyrr-2315" value="eth0: 10.10.10.20" style="rounded=0;whiteSpace=wrap;html=1;labelBackgroundColor=none;" vertex="1" parent="d1s5xP5k-tzUOM_EIyrr-2379">
          <mxGeometry x="120" y="300" width="120" height="30" as="geometry" />
        </mxCell>
        <mxCell id="d1s5xP5k-tzUOM_EIyrr-2381" value="192.168.1.30" style="group" vertex="1" connectable="0" parent="1">
          <mxGeometry x="610" y="1280" width="540" height="440" as="geometry" />
        </mxCell>
        <mxCell id="d1s5xP5k-tzUOM_EIyrr-2382" value="" style="rounded=1;whiteSpace=wrap;html=1;labelBackgroundColor=none;" vertex="1" parent="d1s5xP5k-tzUOM_EIyrr-2381">
          <mxGeometry width="540" height="413.3333333333333" as="geometry" />
        </mxCell>
        <mxCell id="d1s5xP5k-tzUOM_EIyrr-2383" value="eth0: 10.10.10.40" style="rounded=0;whiteSpace=wrap;html=1;labelBackgroundColor=none;" vertex="1" parent="d1s5xP5k-tzUOM_EIyrr-2381">
          <mxGeometry x="180" y="400" width="180" height="40" as="geometry" />
        </mxCell>
        <mxCell id="d1s5xP5k-tzUOM_EIyrr-2384" value="K8s Workcer Node 1" style="text;html=1;align=center;verticalAlign=middle;resizable=0;points=[];autosize=1;strokeColor=none;fillColor=none;" vertex="1" parent="d1s5xP5k-tzUOM_EIyrr-2381">
          <mxGeometry x="172.5" width="130" height="30" as="geometry" />
        </mxCell>
        <mxCell id="d1s5xP5k-tzUOM_EIyrr-2385" value="Kubelet" style="rounded=0;whiteSpace=wrap;html=1;" vertex="1" parent="d1s5xP5k-tzUOM_EIyrr-2381">
          <mxGeometry x="30.000000000000004" y="40" width="120.00000000000001" height="26.666666666666668" as="geometry" />
        </mxCell>
        <mxCell id="d1s5xP5k-tzUOM_EIyrr-2386" value="Calico" style="rounded=0;whiteSpace=wrap;html=1;" vertex="1" parent="d1s5xP5k-tzUOM_EIyrr-2381">
          <mxGeometry x="30.000000000000004" y="120.00000000000001" width="120.00000000000001" height="26.666666666666668" as="geometry" />
        </mxCell>
        <mxCell id="d1s5xP5k-tzUOM_EIyrr-2387" value="CRI" style="rounded=0;whiteSpace=wrap;html=1;" vertex="1" parent="d1s5xP5k-tzUOM_EIyrr-2381">
          <mxGeometry x="165.00000000000003" y="80" width="120.00000000000001" height="26.666666666666668" as="geometry" />
        </mxCell>
        <mxCell id="d1s5xP5k-tzUOM_EIyrr-2388" value="Kube-Proxy" style="rounded=0;whiteSpace=wrap;html=1;" vertex="1" parent="d1s5xP5k-tzUOM_EIyrr-2381">
          <mxGeometry x="165.00000000000003" y="40" width="120.00000000000001" height="26.666666666666668" as="geometry" />
        </mxCell>
        <mxCell id="d1s5xP5k-tzUOM_EIyrr-2389" value="Containerd" style="rounded=0;whiteSpace=wrap;html=1;" vertex="1" parent="d1s5xP5k-tzUOM_EIyrr-2381">
          <mxGeometry x="30.000000000000004" y="80" width="120.00000000000001" height="26.666666666666668" as="geometry" />
        </mxCell>
        <mxCell id="d1s5xP5k-tzUOM_EIyrr-2404" value="" style="rounded=1;whiteSpace=wrap;html=1;" vertex="1" parent="d1s5xP5k-tzUOM_EIyrr-2381">
          <mxGeometry x="20" y="290" width="500" height="110" as="geometry" />
        </mxCell>
        <mxCell id="d1s5xP5k-tzUOM_EIyrr-2390" value="&lt;div&gt;TunnelIO&lt;/div&gt;&lt;div&gt;192.168.0.40&lt;br&gt;&lt;/div&gt;" style="rounded=1;whiteSpace=wrap;html=1;" vertex="1" parent="d1s5xP5k-tzUOM_EIyrr-2381">
          <mxGeometry x="217.50000000000003" y="346.6666666666667" width="105" height="40" as="geometry" />
        </mxCell>
        <mxCell id="d1s5xP5k-tzUOM_EIyrr-2398" value="POD1" style="swimlane;startSize=20;horizontal=1;containerType=tree;" vertex="1" parent="d1s5xP5k-tzUOM_EIyrr-2381">
          <mxGeometry x="30" y="159.17000000000007" width="203" height="95" as="geometry" />
        </mxCell>
        <mxCell id="d1s5xP5k-tzUOM_EIyrr-2399" value="eth0:192.168.0.57" style="whiteSpace=wrap;html=1;treeFolding=1;treeMoving=1;newEdgeStyle={&quot;edgeStyle&quot;:&quot;elbowEdgeStyle&quot;,&quot;startArrow&quot;:&quot;none&quot;,&quot;endArrow&quot;:&quot;none&quot;};" vertex="1" parent="d1s5xP5k-tzUOM_EIyrr-2398">
          <mxGeometry x="80" y="50" width="120" height="40" as="geometry" />
        </mxCell>
        <mxCell id="d1s5xP5k-tzUOM_EIyrr-2396" value="POD2" style="swimlane;startSize=20;horizontal=1;containerType=tree;" vertex="1" parent="d1s5xP5k-tzUOM_EIyrr-2381">
          <mxGeometry x="285" y="159.17000000000007" width="203" height="95" as="geometry" />
        </mxCell>
        <mxCell id="d1s5xP5k-tzUOM_EIyrr-2397" value="eth0:192.168.0.34" style="whiteSpace=wrap;html=1;treeFolding=1;treeMoving=1;newEdgeStyle={&quot;edgeStyle&quot;:&quot;elbowEdgeStyle&quot;,&quot;startArrow&quot;:&quot;none&quot;,&quot;endArrow&quot;:&quot;none&quot;};" vertex="1" parent="d1s5xP5k-tzUOM_EIyrr-2396">
          <mxGeometry x="80" y="50" width="120" height="40" as="geometry" />
        </mxCell>
        <mxCell id="d1s5xP5k-tzUOM_EIyrr-2405" value="Host Network Namespace" style="text;html=1;align=center;verticalAlign=middle;resizable=0;points=[];autosize=1;strokeColor=none;fillColor=none;" vertex="1" parent="d1s5xP5k-tzUOM_EIyrr-2381">
          <mxGeometry x="20" y="346.6700000000001" width="160" height="30" as="geometry" />
        </mxCell>
        <mxCell id="d1s5xP5k-tzUOM_EIyrr-2411" value="" style="endArrow=classic;startArrow=classic;html=1;rounded=0;exitX=0.75;exitY=0;exitDx=0;exitDy=0;entryX=0.25;entryY=1;entryDx=0;entryDy=0;" edge="1" parent="d1s5xP5k-tzUOM_EIyrr-2381">
          <mxGeometry width="50" height="50" relative="1" as="geometry">
            <mxPoint x="430" y="290" as="sourcePoint" />
            <mxPoint x="430" y="249" as="targetPoint" />
          </mxGeometry>
        </mxCell>
        <mxCell id="d1s5xP5k-tzUOM_EIyrr-2410" value="" style="endArrow=classic;startArrow=classic;html=1;rounded=0;exitX=0.75;exitY=0;exitDx=0;exitDy=0;entryX=0.25;entryY=1;entryDx=0;entryDy=0;" edge="1" parent="d1s5xP5k-tzUOM_EIyrr-2381">
          <mxGeometry width="50" height="50" relative="1" as="geometry">
            <mxPoint x="172.5" y="290" as="sourcePoint" />
            <mxPoint x="172.5" y="249" as="targetPoint" />
          </mxGeometry>
        </mxCell>
        <mxCell id="d1s5xP5k-tzUOM_EIyrr-2458" value="" style="verticalLabelPosition=bottom;verticalAlign=top;html=1;shape=mxgraph.basic.patternFillRect;fillStyle=diagGrid;step=5;fillStrokeWidth=0.2;fillStrokeColor=#dddddd;" vertex="1" parent="d1s5xP5k-tzUOM_EIyrr-2381">
          <mxGeometry x="120" y="290" width="100" height="30" as="geometry" />
        </mxCell>
        <mxCell id="d1s5xP5k-tzUOM_EIyrr-2457" value="" style="verticalLabelPosition=bottom;verticalAlign=top;html=1;shape=mxgraph.basic.patternFillRect;fillStyle=diagGrid;step=5;fillStrokeWidth=0.2;fillStrokeColor=#dddddd;" vertex="1" parent="d1s5xP5k-tzUOM_EIyrr-2381">
          <mxGeometry x="380" y="290" width="100" height="30" as="geometry" />
        </mxCell>
      </root>
    </mxGraphModel>
  </diagram>
</mxfile>
